#define gray6_width 16
#define gray6_height 16
static char gray6_bits[] = {
   0xaa, 0xaa, 0xff, 0xff, 0x55, 0x55, 0xff, 0xff, 0xaa, 0xaa, 0xff, 0xff,
   0x55, 0x55, 0xff, 0xff, 0xaa, 0xaa, 0xff, 0xff, 0x55, 0x55, 0xff, 0xff,
   0xaa, 0xaa, 0xff, 0xff, 0x55, 0x55, 0xff, 0xff};
