#define gray1_width 16
#define gray1_height 16
static char gray1_bits[] = {
   0x55, 0x55, 0x00, 0x00, 0xaa, 0xaa, 0x00, 0x00, 0x55, 0x55, 0x00, 0x00,
   0xaa, 0xaa, 0x00, 0x00, 0x55, 0x55, 0x00, 0x00, 0xaa, 0xaa, 0x00, 0x00,
   0x55, 0x55, 0x00, 0x00, 0xaa, 0xaa, 0x00, 0x00};
