#define gray7_width 16
#define gray7_height 16
static char gray7_bits[] = {
   0xee, 0xee, 0xff, 0xff, 0xff, 0xff, 0xff, 0xff, 0x77, 0x77, 0xff, 0xff,
   0xff, 0xff, 0xff, 0xff, 0xbb, 0xbb, 0xff, 0xff, 0xff, 0xff, 0xff, 0xff,
   0xdd, 0xdd, 0xff, 0xff, 0xff, 0xff, 0xff, 0xff};
