#define gray3_width 16
#define gray3_height 16
static char gray3_bits[] = {
   0x55, 0x55, 0xaa, 0xaa, 0x55, 0x55, 0xaa, 0xaa, 0x55, 0x55, 0xaa, 0xaa,
   0x55, 0x55, 0xaa, 0xaa, 0x55, 0x55, 0xaa, 0xaa, 0x55, 0x55, 0xaa, 0xaa,
   0x55, 0x55, 0xaa, 0xaa, 0x55, 0x55, 0xaa, 0xaa};
