#define gray0_width 16
#define gray0_height 16
static char gray0_bits[] = {
   0x11, 0x11, 0x00, 0x00, 0x88, 0x88, 0x00, 0x00, 0x22, 0x22, 0x00, 0x00,
   0x44, 0x44, 0x00, 0x00, 0x11, 0x11, 0x00, 0x00, 0x88, 0x88, 0x00, 0x00,
   0x22, 0x22, 0x00, 0x00, 0x44, 0x44, 0x00, 0x00};
