#define gray4_width 16
#define gray4_height 16
static char gray4_bits[] = {
   0x55, 0x55, 0x55, 0x55, 0xaa, 0xaa, 0xaa, 0xaa, 0x55, 0x55, 0x55, 0x55,
   0xaa, 0xaa, 0xaa, 0xaa, 0x55, 0x55, 0x55, 0x55, 0xaa, 0xaa, 0xaa, 0xaa,
   0x55, 0x55, 0x55, 0x55, 0xaa, 0xaa, 0xaa, 0xaa};
