#define gray5_width 16
#define gray5_height 16
static char gray5_bits[] = {
   0xaa, 0xaa, 0xdd, 0xdd, 0xaa, 0xaa, 0x77, 0x77, 0xaa, 0xaa, 0xdd, 0xdd,
   0xaa, 0xaa, 0x77, 0x77, 0xaa, 0xaa, 0xdd, 0xdd, 0xaa, 0xaa, 0x77, 0x77,
   0xaa, 0xaa, 0xdd, 0xdd, 0xaa, 0xaa, 0x77, 0x77};
