#define mass_width 16
#define mass_height 16
static char mass_bits[] = {
   0xc0, 0x03, 0xb0, 0x0e, 0x58, 0x15, 0xac, 0x2a, 0x56, 0x55, 0xaa, 0x6a,
   0x55, 0xd5, 0xab, 0xaa, 0x55, 0xd5, 0xab, 0xaa, 0x56, 0x55, 0xaa, 0x6a,
   0x54, 0x35, 0xa8, 0x1a, 0x70, 0x0d, 0xc0, 0x03};
